<svg width="121" height="121" viewBox="0 0 121 121" fill="none" xmlns="http://www.w3.org/2000/svg">
<path d="M0.332619 65.0125C1.94034 87.1287 15.338 105.584 33.9459 114.662C38.1737 116.716 42.6991 118.294 47.4032 119.336C48.0284 119.484 48.6536 119.603 49.2789 119.723C51.3034 120.08 53.3577 120.377 55.412 120.526C58.3893 120.764 61.4261 120.764 64.4927 120.556C67.6188 120.318 70.6556 119.871 73.6031 119.187C102.006 112.668 122.162 86.2952 120.019 56.3803C117.637 23.3399 88.9062 -1.51477 55.8586 0.866519C22.811 3.24781 -2.04919 31.9721 0.332619 65.0125Z" fill="url(#paint0_linear)"/>
<mask id="mask0" mask-type="alpha" maskUnits="userSpaceOnUse" x="0" y="0" width="121" height="121">
<path d="M0.332619 65.0125C1.94034 87.1287 15.338 105.584 33.9459 114.662C38.1737 116.716 42.6991 118.294 47.4032 119.336C48.0284 119.484 48.6536 119.603 49.2789 119.723C51.3034 120.08 53.3577 120.377 55.412 120.526C58.3893 120.764 61.4261 120.764 64.4927 120.556C67.6188 120.318 70.6556 119.871 73.6031 119.187C102.006 112.668 122.162 86.2952 120.019 56.3803C117.637 23.3399 88.9062 -1.51477 55.8586 0.866519C22.811 3.24781 -2.04919 31.9721 0.332619 65.0125Z" fill="url(#paint1_linear)"/>
</mask>
<g mask="url(#mask0)">
<path d="M85.5559 53.8966C85.5559 53.8966 106.278 47.7351 107.796 46.9016C109.314 46.0682 110.863 41.8414 111.339 41.8116C111.815 41.7818 111.458 43.6571 111.458 43.6571C111.458 43.6571 112.53 40.8591 112.887 40.8293C113.244 40.7995 114.167 42.2283 114.197 43.7464C114.227 45.2645 111.934 50.5033 110.833 50.7117C109.761 50.8903 84.9307 65.5054 84.9307 65.5054L85.5559 53.8966Z" fill="white"/>
<path d="M28.1838 55.6826C28.1838 55.6826 14.3693 51.8726 12.9402 51.1582C11.5111 50.4438 10.9454 47.4076 10.0523 47.4672C9.15907 47.5267 9.75453 54.1348 10.9157 54.3729C12.1066 54.611 24.0752 63.1837 29.0174 66.2496C33.9597 69.3453 28.1838 55.6826 28.1838 55.6826Z" fill="white"/>
<path d="M49.025 41.6333C49.025 41.6333 56.1704 37.347 59.0286 51.3073C61.8868 65.2676 68.407 67.0834 68.407 67.0834L42.207 64.7021C42.207 64.7021 47.1493 57.9452 47.447 52.9742C47.7447 48.0033 46.5241 45.5029 46.5241 45.5029" fill="#EA9898"/>
<path d="M85.5556 53.8967C85.5556 53.8967 87.1335 62.7075 86.5381 71.1908C86.5381 71.1908 74.9565 73.3042 67.9302 72.5005C67.9302 72.5005 67.5431 79.5849 67.8111 84.8237L48.3398 85.9846C48.3398 85.9846 47.5657 80.7457 47.4466 80.1802C47.3275 79.6146 44.7075 76.9655 44.4991 72.9173C44.4991 72.9173 31.9648 72.5898 27.2607 71.2206C27.2607 71.2206 27.2905 60.0285 28.1539 55.5934C28.1539 55.5934 39.0507 58.5105 50.2155 58.7486C65.2506 59.1058 85.5556 53.8967 85.5556 53.8967Z" fill="#F5B5B4"/>
<path d="M83.6205 63.9578C83.1442 64.0768 82.638 64.1661 82.1319 64.2554C76.088 65.1187 70.3419 62.3207 67.1562 57.5283C67.4837 57.4688 67.8112 57.439 68.1387 57.3795C71.1756 61.6658 76.4453 64.1661 82.0128 63.3625C82.6678 63.2732 83.3228 63.1243 83.948 62.9457C84.5732 60.743 84.7519 58.3915 84.4244 55.9805C84.3351 55.4149 84.216 54.8494 84.0969 54.2838C84.4542 54.1945 84.7221 54.135 84.9603 54.0754C85.1092 54.6708 85.2282 55.2363 85.3176 55.8614C85.6451 58.1832 85.4962 60.4751 84.9603 62.6183C85.4962 62.4099 86.0023 62.2016 86.5085 61.9337C86.5382 62.2611 86.5382 62.5588 86.568 62.8862C85.9726 63.1839 85.3176 63.422 84.6923 63.6304C83.6205 67.0535 81.5067 70.0896 78.6783 72.2923C78.1126 72.3518 77.5171 72.4114 76.9217 72.4709C80.018 70.4468 82.3701 67.4404 83.6205 63.9578Z" fill="#EA9898"/>
<path d="M51.1394 60.7431C51.8242 65.5652 54.5335 69.6432 58.2848 72.2031C60.101 71.0124 62.2148 70.179 64.5073 69.8515C68.5862 69.2562 72.4864 70.3576 75.6125 72.5603C75.1064 72.59 74.63 72.6198 74.1239 72.6496C71.3848 71.0124 68.0503 70.2385 64.6562 70.7445C62.6316 71.0422 60.756 71.7268 59.1185 72.7686C61.6789 74.3165 64.686 75.2094 67.8419 75.1797C67.8419 75.4476 67.8121 75.775 67.8121 76.0727C64.3585 76.0727 61.0835 75.0606 58.3146 73.3044C56.558 74.5546 55.1289 76.1917 54.0869 78.0372C56.3198 79.9422 57.9871 82.4724 58.8505 85.4192L57.9276 85.4787C57.1237 82.8593 55.6351 80.5971 53.6701 78.8409C52.6578 80.9543 52.1517 83.3356 52.3005 85.8062L51.4074 85.8657C51.2585 83.157 51.8242 80.5673 52.9853 78.2456C50.7226 76.4894 47.924 75.388 44.9467 75.2094C44.8574 74.9118 44.7978 74.6141 44.7383 74.3165C47.9537 74.4355 50.9608 75.5666 53.4319 77.4419C54.4739 75.6262 55.8732 74.0188 57.5703 72.7388C53.7594 70.0301 51.0501 65.8331 50.3355 60.8622C50.2462 60.1478 50.1867 59.4632 50.1569 58.7488C50.2164 58.7488 50.2462 58.7488 50.3058 58.7488C50.5439 58.7488 50.8119 58.7488 51.0501 58.7488C50.9905 59.4334 51.0501 60.0883 51.1394 60.7431Z" fill="#EA9898"/>
<path d="M35.2106 69.0479C33.3647 66.0415 30.6851 63.6602 27.5292 62.1719C27.559 61.8445 27.559 61.5468 27.5888 61.2194C31.1913 62.8565 34.2281 65.5652 36.2228 69.0181C36.5206 68.9883 36.8183 68.9586 37.1458 68.9288C42.8919 68.0953 47.3876 63.9876 48.9358 58.7488C49.2335 58.7488 49.561 58.7785 49.8587 58.7785C48.251 64.4341 43.4576 68.9288 37.2649 69.8218C37.0862 69.8515 36.8778 69.8813 36.6992 69.8813C37.1458 70.7743 37.5328 71.697 37.8306 72.6496C37.5031 72.6198 37.2053 72.6198 36.8778 72.59C36.5503 71.6673 36.1931 70.8041 35.7465 69.9706C32.7394 70.0897 29.8217 69.3157 27.3506 67.887C27.3506 67.5595 27.3804 67.2024 27.3804 66.8452C29.6431 68.2739 32.3524 69.0776 35.2106 69.0479Z" fill="#EA9898"/>
<path d="M60.9043 58.2722C60.8745 60.2963 60.3386 67.8867 53.4313 69.0475C47.2088 70.0894 48.0127 62.6478 49.5013 58.7485C49.7395 58.7485 49.9777 58.7782 50.2159 58.7782C53.61 58.8378 57.272 58.6294 60.9043 58.2722Z" fill="white"/>
<path d="M46.4043 46.6637C46.4043 46.6637 46.5234 51.7834 47.4166 53.7182C48.3097 55.653 51.2572 53.8671 51.2572 53.8671L52.5375 58.5999L50.7213 58.8082C50.7213 58.8082 49.4113 66.8748 52.9543 66.7558C58.4027 66.5177 59.835 58.3633 59.835 58.3633L57.8668 58.5403L53.0734 46.4255L46.4043 46.6637Z" fill="white"/>
<path d="M37.7705 117.953C41.9982 120.007 46.5237 121.585 51.2277 122.627C51.853 122.776 52.4782 122.895 53.1034 123.014L56.825 111.464L59.2366 123.817C62.2139 124.055 65.2507 124.055 68.3172 123.847C71.4434 123.609 74.4802 123.163 77.4277 122.478C76.8025 115.453 75.8497 105.333 75.284 102.177C74.3909 97.2065 67.8111 84.8833 67.8111 84.8833L48.3398 86.0442L37.7705 117.953Z" fill="#3DB9F5"/>
<path d="M45.0653 47.9732C45.0653 47.9732 48.9953 48.1518 50.335 47.9137C50.335 47.9137 50.9007 48.7769 51.4962 48.9257C51.4962 48.9257 51.7641 47.3779 52.9848 47.7946C54.0268 48.1518 53.6696 49.6997 53.223 50.3545C53.223 50.3545 53.5992 56.7194 57.8865 58.5352C57.8865 58.5352 55.4262 44.6097 52.8359 43.5083C52.8359 43.5083 52.0023 41.2461 49.025 41.6628C46.0775 42.0795 44.1721 44.818 45.0653 47.9732Z" fill="#EA9898"/>
<path d="M51.2285 122.597C51.8537 122.746 52.479 122.865 53.1042 122.984L56.8258 111.435L54.0867 96.8196L51.2285 122.597Z" fill="#0F8BC7"/>
<path d="M51.2578 53.8376C51.2578 53.8376 52.2701 53.0636 52.7167 52.1108C52.7167 52.1108 52.8358 54.0163 51.7044 55.4751L51.2578 53.8376Z" fill="#3934BC"/>
<path d="M48.3701 86.0444L67.8414 84.8833C67.8414 84.8833 68.7346 86.5506 69.9255 88.9324L48.3701 86.0444Z" fill="#0F8BC7"/>
</g>
<defs>
<linearGradient id="paint0_linear" x1="33.1748" y1="0.708739" x2="79.6748" y2="80.9587" gradientUnits="userSpaceOnUse">
<stop stop-color="#3636B0"/>
<stop offset="1" stop-color="#3B31C4"/>
</linearGradient>
<linearGradient id="paint1_linear" x1="33.1748" y1="0.708739" x2="79.6748" y2="80.9587" gradientUnits="userSpaceOnUse">
<stop stop-color="#3636B0"/>
<stop offset="1" stop-color="#3B31C4"/>
</linearGradient>
</defs>
</svg>
