<svg width="300" height="277" viewBox="0 0 300 277" fill="none" xmlns="http://www.w3.org/2000/svg">
<path d="M133.12 232.707V124.607C133.12 120.083 136.777 116.426 141.302 116.426H209.69C213.347 116.426 216.88 114.938 219.484 112.335L226.55 105.269C229.153 102.665 232.686 101.178 236.343 101.178H265.723C270.248 101.178 273.905 104.835 273.905 109.36V223.595C273.905 228.616 269.814 232.707 264.794 232.707" fill="url(#paint0_linear)"/>
<path d="M241.798 175.744V210.455C241.798 212.314 243.285 213.864 245.207 213.864H296.529C298.389 213.864 299.938 212.376 299.938 210.455V175.744H241.798Z" fill="#F4CF4B"/>
<path d="M269.442 155.785L242.975 173.636C241.487 174.628 241.487 176.86 242.975 177.851L269.504 195.765C270.372 196.322 271.487 196.322 272.355 195.765L298.884 177.851C300.372 176.86 300.372 174.628 298.884 173.636L272.355 155.785C271.425 155.165 270.31 155.165 269.442 155.785Z" fill="#EABD1E"/>
<path d="M290.33 160.806H251.405C249.979 160.806 248.863 161.922 248.863 163.347V181.88L269.442 195.765C270.31 196.322 271.425 196.322 272.293 195.765L292.872 181.88V163.347C292.872 161.922 291.756 160.806 290.33 160.806Z" fill="#E6E6E6"/>
<path d="M276.818 192.728L272.665 189.071C271.612 188.203 270.124 188.203 269.07 189.071L264.918 192.728L242.604 212.624C243.223 213.368 244.153 213.802 245.207 213.802H296.529C297.583 213.802 298.513 213.306 299.132 212.562L276.818 192.728Z" fill="#EABD1E"/>
<path d="M267.211 183.244C266.095 182.624 265.289 181.818 264.67 180.764C264.05 179.711 263.802 178.471 263.802 177.107C263.802 175.558 264.112 174.256 264.732 173.141C265.351 172.025 266.219 171.157 267.335 170.599C268.451 170.041 269.69 169.731 271.054 169.731C272.479 169.731 273.719 169.979 274.773 170.537C275.827 171.095 276.57 171.839 277.128 172.769C277.686 173.698 277.934 174.752 277.934 175.868C277.934 176.798 277.81 177.665 277.5 178.347C277.19 179.029 276.818 179.587 276.26 179.897C275.765 180.269 275.145 180.455 274.463 180.455C273.905 180.455 273.409 180.331 273.037 180.083C272.665 179.835 272.417 179.463 272.355 179.091H272.293C271.984 179.525 271.674 179.835 271.302 180.083C270.93 180.331 270.496 180.455 269.876 180.455C269.07 180.455 268.451 180.207 267.955 179.649C267.521 179.091 267.273 178.409 267.273 177.479C267.273 176.674 267.397 175.992 267.707 175.31C268.017 174.69 268.389 174.132 268.946 173.76C269.442 173.388 270.062 173.203 270.744 173.203C271.178 173.203 271.612 173.326 271.922 173.512C272.293 173.698 272.479 173.946 272.665 174.318H272.727L272.789 174.132C272.851 173.884 272.913 173.76 273.099 173.636C273.285 173.512 273.471 173.45 273.719 173.45C273.967 173.45 274.153 173.512 274.339 173.636C274.463 173.76 274.525 174.008 274.525 174.256C274.525 174.38 274.525 174.442 274.525 174.504L274.029 177.293C273.967 177.603 273.967 177.913 273.967 178.099C273.967 178.409 274.029 178.657 274.153 178.843C274.277 179.029 274.525 179.091 274.773 179.091C275.021 179.091 275.207 178.967 275.455 178.781C275.703 178.595 275.889 178.223 276.012 177.727C276.136 177.231 276.26 176.674 276.26 175.93C276.26 175 276.074 174.194 275.641 173.512C275.269 172.831 274.649 172.273 273.843 171.901C273.037 171.529 272.108 171.343 270.992 171.343C269.938 171.343 269.008 171.591 268.141 172.025C267.335 172.459 266.653 173.141 266.219 174.07C265.723 174.938 265.537 175.992 265.537 177.231C265.537 178.347 265.785 179.277 266.219 180.145C266.653 180.95 267.273 181.632 268.079 182.066C268.884 182.5 269.876 182.748 270.992 182.748C271.736 182.748 272.355 182.686 272.851 182.5C273.347 182.376 273.905 182.128 274.401 181.818C274.587 181.694 274.773 181.632 274.897 181.632C275.145 181.632 275.331 181.694 275.455 181.88C275.579 182.004 275.703 182.19 275.703 182.438C275.703 182.686 275.579 182.934 275.331 183.12C274.897 183.43 274.277 183.678 273.533 183.926C272.789 184.174 271.984 184.236 271.054 184.236C269.566 184.112 268.265 183.864 267.211 183.244ZM271.55 178.657C271.86 178.409 272.108 178.037 272.232 177.603C272.417 177.169 272.479 176.736 272.479 176.24C272.479 175.744 272.355 175.372 272.17 175.124C271.922 174.876 271.612 174.752 271.24 174.752C270.806 174.752 270.496 174.876 270.186 175.186C269.876 175.434 269.69 175.806 269.504 176.24C269.38 176.674 269.256 177.107 269.256 177.541C269.256 178.037 269.38 178.409 269.566 178.657C269.752 178.967 270.062 179.091 270.434 179.091C270.806 179.029 271.24 178.905 271.55 178.657Z" fill="#3333BC"/>
<path d="M129.029 232.707C124.008 232.707 119.917 228.616 119.917 223.595V144.566C119.917 140.042 123.574 136.385 128.099 136.385H247.562C252.086 136.385 255.743 140.042 255.743 144.566V223.595C255.743 228.616 259.834 232.707 264.855 232.707" fill="url(#paint1_linear)"/>
<path d="M92.2314 222.231L93.5331 243.43L92.6307 247.358C92.5393 247.756 92.6989 248.169 93.0339 248.403L101.13 254.039C101.929 254.595 102.971 253.797 102.643 252.881L99.5455 244.236L102.335 225.517L92.2314 222.231Z" fill="white"/>
<path d="M29.0703 149.401L15.062 142.645L11.4722 139.847C11.106 139.561 10.5915 139.566 10.23 139.857L2.27167 146.269C1.53001 146.867 1.96452 148.064 2.91682 148.048L10.4752 147.913L23.2438 157.459" fill="white"/>
<path d="M65.0206 121.57L104.566 124.855L109.587 178.595L102.335 229.484L85.9091 226.074L87.2727 177.851L80.2066 154.422L54.9793 180.021C52.438 182.624 48.4091 182.934 45.4339 180.827L17.1074 160.186L26.4669 147.603L43.5744 154.546L65.0206 121.57Z" fill="#3DB9F5"/>
<path d="M47.5413 166.385L23.4297 151.818L24.1115 150.765L47.1074 164.711L72.8305 121.942L73.8842 122.624L47.5413 166.385Z" fill="#2D2D83"/>
<path d="M104.628 124.855L61.2393 127.397L65.0202 121.57L104.628 124.855Z" fill="#0F8BC7"/>
<path d="M132.211 71.5499L157.376 59.5251C157.376 59.5251 161.157 57.3557 162.025 57.3557C162.893 57.3557 165 58.1615 165.186 58.2855C167.603 59.897 161.963 63.802 161.963 63.802L137.046 82.2111" fill="white"/>
<path d="M41.5913 100.31L33.4715 127.83C33.4715 127.83 30.5582 130.682 30.3103 130.992C30.0624 131.364 30.3723 135.764 31.7359 136.322C33.0376 136.942 37.9962 133.161 37.9962 133.161C37.9962 133.161 38.802 132.541 39.4839 130.868C39.8558 129.938 52.4384 104.711 52.4384 104.711" fill="white"/>
<path d="M133.512 69.6902L126.136 72.4794L103.884 74.8968L79.4625 74.5249H79.2765L74.5658 74.4629H73.76C70.103 74.4009 66.5079 75.7646 63.7806 78.1819L40.7848 98.8224L37.8096 107.438L54.4831 112.831L57.0244 107.19L66.322 101.55L65.1443 121.632L104.69 124.917L105.867 96.1571L131.281 90.4547L141.384 84.8761L133.512 69.6902Z" fill="#FFB9B8"/>
<path d="M72.7691 114.938C70.4757 113.884 67.9964 113.327 65.5171 113.203L65.4551 114.132C70.2278 114.38 74.6286 116.364 77.9138 120.021C78.7195 120.889 79.4633 121.88 80.0832 122.872L81.1989 122.996C79.1534 119.587 76.4262 116.612 72.7691 114.938Z" fill="#EA9898"/>
<path d="M134.381 73.8431C134.629 73.4093 134.814 72.9754 135 72.5415L134.443 71.4258V71.4878C133.017 76.2605 128.244 79.5456 123.781 80.9712C119.195 82.4588 114.174 82.4588 109.525 81.3431C107.356 80.8473 105.124 80.0415 103.017 79.0498C104.505 77.4382 106.054 75.9506 107.666 74.525L106.054 74.7109C104.69 75.9506 103.389 77.2522 102.087 78.6159C100.228 77.6241 98.4921 76.3225 97.0665 74.8349H95.7649C97.3764 76.6324 99.2979 78.12 101.405 79.2977C101.033 79.6696 100.724 80.1035 100.352 80.4754C97.8103 83.4506 95.5789 86.6737 93.7194 90.0828C85.2277 85.2481 75.0004 84.9382 65.7029 87.9134C60.4963 89.5869 55.5996 92.1902 51.2607 95.4754L51.1987 95.4134C50.207 94.2357 48.9673 93.3679 47.6657 92.6241L46.9219 93.3059C48.2855 93.9878 49.5252 94.8555 50.5169 96.0332C48.5335 97.5828 46.488 99.7522 46.364 102.418C46.3021 104.463 47.9136 106.756 50.0211 107.066C52.5624 107.5 53.926 104.835 53.988 102.665C54.112 100.31 53.2442 98.0787 51.8186 96.2192C51.8806 96.1572 51.9425 96.1572 51.9425 96.0952C54.174 94.4216 56.5293 92.934 59.0087 91.6944C68.7401 86.7357 80.7649 84.9382 90.9301 89.7109C91.7359 90.0828 92.4797 90.5167 93.2855 90.9506C89.6905 97.7068 87.3351 105.083 86.4673 112.769C86.0954 116.302 85.9715 119.897 86.2194 123.43L87.1492 123.492C87.0252 121.632 86.9632 119.711 87.0252 117.851C87.2731 108.616 89.6905 99.5043 94.0293 91.3845C98.7401 94.2977 102.583 98.4506 105.372 103.223L105.434 101.55C103.203 98.0167 100.29 94.7935 96.9425 92.2522C96.1368 91.6324 95.269 91.0745 94.4632 90.5787C95.5169 88.6572 96.6946 86.7977 97.9963 85.0002C99.2979 83.2026 100.724 81.4051 102.211 79.7935C104.071 80.7233 106.054 81.4671 108.038 82.025C112.81 83.3266 117.955 83.5126 122.728 82.2729C127.438 80.9712 132.025 78.12 134.381 73.8431ZM52.1285 105.331C50.207 107.562 47.2938 104.649 47.2938 102.479C47.2938 100.062 49.2773 98.2026 51.0748 96.715C51.2607 96.963 51.5087 97.2729 51.6946 97.5828C52.9963 99.6283 53.988 103.223 52.1285 105.331Z" fill="#EA9898"/>
<path d="M67.934 81.0952C74.1323 81.2812 80.3927 80.3514 86.0332 77.7481C87.8927 76.8804 89.6282 75.8886 91.3018 74.7109H89.5662C86.777 76.5704 83.6778 77.9341 80.4546 78.8018C74.5662 80.4134 68.3679 80.5374 62.3555 79.6696C62.2935 79.6696 62.2315 79.6696 62.1695 79.6696L61.3018 80.4754C63.4712 80.7853 65.7026 81.0332 67.934 81.0952Z" fill="#EA9898"/>
<path d="M80.207 154.422L87.3351 177.913L88.8847 145.62L80.207 154.422Z" fill="#0F8BC7"/>
<path d="M97.8098 55.4958C95.2684 53.6982 89.256 54.628 87.0866 57.7892C87.0866 57.7892 84.4213 58.471 86.5908 62.9958C88.7602 67.5206 94.6486 64.2354 94.6486 64.2354L97.004 61.2602C96.942 61.2602 100.661 57.5412 97.8098 55.4958Z" fill="#F5B5B4"/>
<path d="M97.5621 59.1528C97.5621 59.1528 98.4299 67.9545 97.748 69.5041C97.0662 71.0537 93.3472 69.9999 93.3472 69.9999L93.6571 76.3842C93.6571 76.8181 93.4712 77.19 93.0993 77.376C91.9836 77.9958 89.3803 78.9256 86.1571 77.252C85.7233 77.0661 85.4753 76.5702 85.5993 76.0743L87.3348 65.4132C87.3348 65.4132 85.8472 64.2355 86.2191 62.252C86.591 60.2685 88.7604 60.8884 89.2563 62.376C89.2563 62.376 90.372 61.8181 90.6199 59.4627C90.558 59.4627 93.4712 60.2685 97.5621 59.1528Z" fill="white"/>
<path d="M93.3471 69.9379C93.3471 69.9379 91.4876 69.3801 90 68.1404C90 68.1404 90.3719 71.2396 93.4711 72.6652L93.3471 69.9379Z" fill="#2D2D83"/>
<path d="M194.938 71.343H163.637C162.583 71.343 161.777 70.5372 161.777 69.4835V27.7067C161.777 26.653 162.583 25.8472 163.637 25.8472H190.414C192.893 28.3265 194.319 29.7521 196.798 32.2315V69.5455C196.798 70.5373 195.93 71.343 194.938 71.343Z" fill="#5151CC"/>
<path d="M180.93 36.0126H168.409C168.037 36.0126 167.789 35.7647 167.789 35.3928C167.789 35.0209 168.037 34.7729 168.409 34.7729H180.93C181.301 34.7729 181.549 35.0209 181.549 35.3928C181.549 35.7647 181.301 36.0126 180.93 36.0126Z" fill="#2222A8"/>
<path d="M189.794 40.2275H174.794C174.422 40.2275 174.174 39.9795 174.174 39.6076C174.174 39.2357 174.422 38.9878 174.794 38.9878H189.794C190.166 38.9878 190.414 39.2357 190.414 39.6076C190.414 39.9795 190.166 40.2275 189.794 40.2275Z" fill="#2222A8"/>
<path d="M189.793 44.4423H168.409C168.037 44.4423 167.789 44.1944 167.789 43.8225C167.789 43.4506 168.037 43.2026 168.409 43.2026H189.793C190.165 43.2026 190.413 43.4506 190.413 43.8225C190.413 44.1944 190.165 44.4423 189.793 44.4423Z" fill="#2222A8"/>
<path d="M189.793 48.7192H168.409C168.037 48.7192 167.789 48.4712 167.789 48.0993C167.789 47.7274 168.037 47.4795 168.409 47.4795H189.793C190.165 47.4795 190.413 47.7274 190.413 48.0993C190.413 48.4712 190.165 48.7192 189.793 48.7192Z" fill="#2222A8"/>
<path d="M189.793 52.9338H168.409C168.037 52.9338 167.789 52.6858 167.789 52.3139C167.789 51.942 168.037 51.6941 168.409 51.6941H189.793C190.165 51.6941 190.413 51.942 190.413 52.3139C190.413 52.6858 190.165 52.9338 189.793 52.9338Z" fill="#2222A8"/>
<path d="M189.793 63.967H179.876C179.504 63.967 179.256 63.719 179.256 63.3471C179.256 62.9752 179.504 62.7273 179.876 62.7273H189.793C190.165 62.7273 190.413 62.9752 190.413 63.3471C190.413 63.719 190.165 63.967 189.793 63.967Z" fill="#2222A8"/>
<path d="M183.409 57.1491H168.409C168.037 57.1491 167.789 56.9012 167.789 56.5293C167.789 56.1574 168.037 55.9094 168.409 55.9094H183.409C183.781 55.9094 184.029 56.1574 184.029 56.5293C184.029 56.9012 183.781 57.1491 183.409 57.1491Z" fill="#2222A8"/>
<path d="M190.413 25.8472V30.372C190.413 31.4257 191.219 32.2315 192.273 32.2315H196.797L190.413 25.8472Z" fill="#090957"/>
<path d="M44.0248 276.145H18.4876C17.6198 276.145 17 275.463 17 274.657V240.566C17 239.698 17.6818 239.079 18.4876 239.079H40.3678C42.4132 241.124 43.5289 242.24 45.5744 244.285V274.719C45.5744 275.463 44.8925 276.145 44.0248 276.145Z" fill="#2222A8"/>
<path d="M40.3682 239.017V242.674C40.3682 243.541 41.05 244.161 41.8558 244.161H45.5128L40.3682 239.017Z" fill="#090958"/>
<path d="M158.306 59.0293C158.306 59.0293 162.025 55.4963 163.202 54.9384C164.69 54.2566 161.715 58.5954 161.715 58.5954" fill="white"/>
<path d="M210.972 254.133C210.972 254.133 221.137 254.69 228.947 253.575C228.947 253.575 229.877 269.38 221.075 274.773C221.075 274.773 209.794 276.075 200.993 273.595C200.931 273.657 209.918 267.521 210.972 254.133Z" fill="#5151CC"/>
<path d="M41.8187 11.0332C41.8187 11.0332 30.5378 16.3018 21.2402 18.6572C21.2402 18.6572 27.3766 36.9423 39.8353 39.0497C39.8353 39.0497 53.1617 35.3307 62.0873 28.5125C62.0873 28.5745 49.1948 25.7853 41.8187 11.0332Z" fill="#5151CC"/>
<path d="M285.373 32.2934H258.038C256.674 32.2934 255.559 31.1777 255.559 29.814V2.47934C255.559 1.1157 256.674 0 258.038 0H285.373C286.736 0 287.852 1.1157 287.852 2.47934V29.814C287.852 31.1777 286.798 32.2934 285.373 32.2934Z" fill="#2222A8"/>
<path d="M266.901 10.4751V21.7561C266.901 22.252 267.459 22.5619 267.831 22.314L276.943 16.6735C277.315 16.4256 277.315 15.8677 276.943 15.6198L267.831 9.97927C267.459 9.73134 266.901 10.0413 266.901 10.4751Z" fill="#090957"/>
<path d="M271.673 59.339H224.07C222.954 59.339 222.024 58.4092 222.024 57.2935V50.3514C222.024 49.2357 222.954 48.3059 224.07 48.3059H271.673C272.789 48.3059 273.719 49.2357 273.719 50.3514V57.3555C273.719 58.4712 272.851 59.339 271.673 59.339Z" fill="#5151CC"/>
<path d="M266.591 54.4423H228.533C228.161 54.4423 227.913 54.1944 227.913 53.8225C227.913 53.4506 228.161 53.2026 228.533 53.2026H266.591C266.963 53.2026 267.211 53.4506 267.211 53.8225C267.211 54.1944 266.901 54.4423 266.591 54.4423Z" fill="#2222A8"/>
<path d="M234.236 55.4338C235.126 55.4338 235.847 54.7123 235.847 53.8223C235.847 52.9322 235.126 52.2107 234.236 52.2107C233.346 52.2107 232.624 52.9322 232.624 53.8223C232.624 54.7123 233.346 55.4338 234.236 55.4338Z" fill="#090957"/>
<path d="M197.38 183.058L187.401 170.166C187.091 169.732 186.409 169.732 186.037 170.166L176.058 183.058C175.624 183.616 175.996 184.422 176.74 184.422H181.078V198.43C181.078 198.926 181.45 199.298 181.946 199.298H191.554C192.05 199.298 192.421 198.926 192.421 198.43V184.422H196.76C197.442 184.422 197.814 183.616 197.38 183.058Z" fill="#3DB9F5"/>
<path d="M186.719 218.636C168.248 218.636 153.248 203.636 153.248 185.165C153.248 166.694 168.248 151.694 186.719 151.694C205.19 151.694 220.19 166.694 220.19 185.165C220.19 203.636 205.19 218.636 186.719 218.636ZM186.719 156.343C170.789 156.343 157.835 169.298 157.835 185.227C157.835 201.157 170.789 214.112 186.719 214.112C202.649 214.112 215.603 201.157 215.603 185.227C215.603 169.298 202.649 156.343 186.719 156.343Z" fill="#3DB9F5"/>
<path d="M280.475 94.9172H262.996H262.376C261.694 94.9172 261.136 95.4751 261.136 96.1569V99.7519V115.868C260.517 115.558 259.835 115.434 259.029 115.434C256.86 115.434 255.124 116.735 255.124 118.285C255.124 119.835 256.86 121.136 259.029 121.136C261.198 121.136 262.934 119.835 262.934 118.285V99.7519H280.413V115.868C279.793 115.558 279.112 115.434 278.306 115.434C276.136 115.434 274.401 116.735 274.401 118.285C274.401 119.835 276.136 121.136 278.306 121.136C280.475 121.136 282.211 119.835 282.211 118.285V99.7519V96.1569C282.211 95.4751 281.653 94.9172 280.971 94.9172H280.475Z" fill="white"/>
<path d="M68.0584 89.8967L56.9014 107.128L66.1989 101.488L68.0584 89.8967Z" fill="#EA9898"/>
<defs>
<linearGradient id="paint0_linear" x1="203.513" y1="101.178" x2="203.513" y2="232.707" gradientUnits="userSpaceOnUse">
<stop stop-color="#1E1E83"/>
<stop offset="1" stop-color="#070754"/>
</linearGradient>
<linearGradient id="paint1_linear" x1="192.386" y1="136.385" x2="192.386" y2="232.707" gradientUnits="userSpaceOnUse">
<stop stop-color="#2424AA"/>
<stop offset="1" stop-color="#16169E"/>
</linearGradient>
</defs>
</svg>
