<svg width="80" height="80" viewBox="0 0 80 80" fill="none" xmlns="http://www.w3.org/2000/svg">
<mask id="mask0" mask-type="alpha" maskUnits="userSpaceOnUse" x="0" y="0" width="80" height="80">
<path d="M40 80C62.0914 80 80 62.0914 80 40C80 17.9086 62.0914 0 40 0C17.9086 0 0 17.9086 0 40C0 62.0914 17.9086 80 40 80Z" fill="#F2F2F2"/>
</mask>
<g mask="url(#mask0)">
<path d="M40 80C62.0914 80 80 62.0914 80 40C80 17.9086 62.0914 0 40 0C17.9086 0 0 17.9086 0 40C0 62.0914 17.9086 80 40 80Z" fill="url(#paint0_linear)"/>
<path d="M45.6314 57.8335C54.0575 54.5914 58.2601 45.1324 55.018 36.7062C51.7759 28.2801 42.3169 24.0775 33.8907 27.3196C25.4646 30.5617 21.262 40.0207 24.5041 48.4469C27.7462 56.8731 37.2052 61.0756 45.6314 57.8335Z" fill="#F4CF4B"/>
<path d="M35.6891 49.94C34.7011 49.94 33.8029 49.5508 33.1143 48.8621L34.4915 47.4849C34.8208 47.8142 35.24 47.9639 35.6891 47.9639C36.1382 47.9639 36.5574 47.7843 36.8867 47.4849L39.9107 44.4609C40.5694 43.8023 40.5694 42.7244 39.9107 42.0657L41.2879 40.6885C42.6951 42.0957 42.6951 44.431 41.2879 45.8382L38.264 48.8621C37.5753 49.5508 36.6771 49.94 35.6891 49.94Z" fill="white"/>
<path d="M40.0599 45.5989C39.0719 45.5989 38.1737 45.2096 37.4851 44.521C36.0779 43.1138 36.0779 40.7785 37.4851 39.3713L40.509 36.3474C41.1977 35.6588 42.0959 35.2695 43.0839 35.2695C44.0719 35.2695 44.9701 35.6588 45.6587 36.3474C47.0659 37.7546 47.0659 40.0899 45.6587 41.4971L42.6348 44.521C41.9462 45.2096 41.018 45.5989 40.0599 45.5989ZM43.0839 37.2156C42.6348 37.2156 42.2156 37.3953 41.8863 37.6947L38.8623 40.7186C38.2036 41.3773 38.2036 42.4552 38.8623 43.1138C39.1917 43.4432 39.6108 43.5929 40.0599 43.5929C40.509 43.5929 40.9282 43.4132 41.2575 43.1138L44.2815 40.0899C44.9402 39.4312 44.9402 38.3534 44.2815 37.6947C43.9521 37.3953 43.533 37.2156 43.0839 37.2156Z" fill="#3B32C3"/>
<path d="M33.114 48.8921C31.7068 47.4849 31.7068 45.1496 33.114 43.7424L36.1379 40.7185C37.5451 39.3113 39.8805 39.3113 41.2876 40.7185L39.9104 42.0957C39.2517 41.437 38.1739 41.437 37.5152 42.0957L34.4912 45.0897C33.8325 45.7484 33.8325 46.8263 34.4912 47.4849L33.114 48.8921Z" fill="white"/>
<path d="M45.7183 63.3474C43.8021 65.1737 42.4548 68.3175 41.9758 72.03C41.7363 73.9462 41.5866 78.0181 41.5566 81.9702C42.1554 81.9402 42.7243 81.9103 43.3231 81.8803C43.3231 78.0779 43.4129 74.3654 43.5926 72.7187C43.5926 72.7187 59.4908 70.3534 63.7722 56.7007C63.7423 56.6708 54.9099 54.6049 45.7183 63.3474Z" fill="#FFB9B8"/>
<path d="M34.4308 63.3474C36.347 65.1737 37.6943 68.3175 38.1734 72.03C38.4129 73.9462 38.5626 78.0181 38.5925 81.9702C37.9937 81.9402 37.4249 81.9103 36.8261 81.8803C36.8261 78.0779 36.7362 74.3654 36.5566 72.7187C36.5566 72.7187 20.6584 70.3534 16.377 56.7007C16.4069 56.6708 25.2392 54.6049 34.4308 63.3474Z" fill="#FFB9B8"/>
<path d="M49.8859 10.8084L51.353 16.2874L65.6943 17.994L50.7542 10.1198C50.2751 9.88024 49.7661 10.2994 49.8859 10.8084Z" fill="white"/>
<path d="M51.3538 16.2874L48.4796 18.7724C48.3 18.952 48.3898 19.2514 48.6293 19.2814L50.9646 19.6406L51.3239 17.9041L65.6652 17.9939L51.3538 16.2874Z" fill="#5151CC"/>
<path d="M65.6947 17.9941L51.3534 17.9043L50.1258 23.533C50.036 24.0121 50.4851 24.4013 50.9342 24.2217L65.6947 17.9941Z" fill="white"/>
<path d="M16.2338 37.994C16.0841 37.994 15.9644 37.9342 15.8446 37.8443C15.8147 37.8144 15.3356 37.3952 14.7667 36.6168C14.5871 36.3473 14.647 35.988 14.9164 35.7785C15.1859 35.5988 15.5452 35.6587 15.7548 35.9282C16.2338 36.5868 16.623 36.9461 16.653 36.9461C16.8925 37.1557 16.9224 37.5449 16.7129 37.7845C16.5632 37.9342 16.4135 37.994 16.2338 37.994Z" fill="#090957"/>
<path d="M13.8682 34.0119C13.5988 34.0119 13.3593 33.8322 13.2994 33.5927C13.0299 32.7244 12.9102 31.7963 12.9102 30.8681C12.9102 30.6586 12.9102 30.419 12.9401 30.2095C12.97 29.8801 13.2395 29.6406 13.5688 29.6406C13.8982 29.6705 14.1377 29.94 14.1377 30.2693C14.1377 30.4789 14.1078 30.6586 14.1078 30.8382C14.1078 31.6466 14.2275 32.455 14.4371 33.2334C14.5269 33.5628 14.3473 33.8921 14.0179 33.9819C13.9581 33.9819 13.8982 34.0119 13.8682 34.0119ZM14.1976 27.6945C14.1377 27.6945 14.0479 27.6945 13.988 27.6646C13.6886 27.5448 13.509 27.2155 13.6287 26.8861C13.7485 26.5867 13.8682 26.2873 13.988 25.9879C14.3173 25.2693 14.7365 24.5807 15.2155 23.922C15.4251 23.6526 15.7844 23.5927 16.0539 23.8023C16.3233 24.0119 16.3832 24.3711 16.1736 24.6406C15.7245 25.2394 15.3652 25.8382 15.0658 26.4969C14.9461 26.7664 14.8263 27.0358 14.7365 27.3053C14.6766 27.5448 14.4371 27.6945 14.1976 27.6945ZM17.97 22.6047C17.7904 22.6047 17.6108 22.5149 17.491 22.3951C17.2814 22.1256 17.3114 21.7664 17.5808 21.5568C18.3892 20.8981 19.3473 20.2993 20.3652 19.7304C20.6646 19.5807 21.0239 19.6705 21.1736 19.9699C21.3233 20.2693 21.2036 20.6286 20.9341 20.7783C19.976 21.2873 19.1078 21.8562 18.3293 22.455C18.2395 22.5448 18.0898 22.6047 17.97 22.6047ZM23.5988 19.5508C23.3593 19.5508 23.1197 19.4011 23.0299 19.1616C22.9102 18.8622 23.0898 18.5029 23.3892 18.3831C24.3772 18.0238 25.4251 17.7244 26.5329 17.455C26.8623 17.3652 27.1916 17.5747 27.2515 17.9041C27.3413 18.2334 27.1317 18.5628 26.8024 18.6226C25.7545 18.8622 24.7365 19.1616 23.7784 19.5208C23.7185 19.5508 23.6587 19.5508 23.5988 19.5508ZM29.8263 18.0538C29.5269 18.0538 29.2874 17.8442 29.2275 17.5448C29.1676 17.2155 29.4072 16.9161 29.7365 16.8562C30.7844 16.7065 31.8623 16.5867 32.97 16.5268C33.2994 16.4969 33.5988 16.7664 33.5988 17.0957C33.6287 17.425 33.3593 17.7244 33.0299 17.7244C31.9521 17.7843 30.9042 17.9041 29.8862 18.0538C29.8862 18.0538 29.8563 18.0538 29.8263 18.0538ZM39.4371 17.7544H39.4072C38.3293 17.6945 37.2814 17.6346 36.2335 17.6346C35.9042 17.6346 35.6347 17.3652 35.6347 17.0358C35.6347 16.7065 35.9042 16.437 36.2335 16.437C37.2814 16.437 38.3892 16.4969 39.467 16.5568C39.7964 16.5867 40.0359 16.8562 40.0359 17.1855C40.006 17.5149 39.7365 17.7544 39.4371 17.7544Z" fill="#090957"/>
<path d="M44.1376 18.2634C44.1076 18.2634 44.0777 18.2634 44.0478 18.2634C43.5687 18.2035 43.0597 18.1137 42.5807 18.0538C42.2513 18.0239 42.0118 17.7245 42.0717 17.3951C42.1016 17.0658 42.401 16.8263 42.7304 16.8862C43.2394 16.946 43.7184 17.0059 44.2274 17.0957C44.5567 17.1556 44.7663 17.455 44.7364 17.7844C44.6765 18.0538 44.407 18.2634 44.1376 18.2634Z" fill="#090957"/>
</g>
<defs>
<linearGradient id="paint0_linear" x1="22" y1="-9.40263e-07" x2="53" y2="53.5" gradientUnits="userSpaceOnUse">
<stop stop-color="#3636B0"/>
<stop offset="1" stop-color="#3B31C4"/>
</linearGradient>
</defs>
</svg>
