<svg width="80" height="80" viewBox="0 0 80 80" fill="none" xmlns="http://www.w3.org/2000/svg">
<path d="M40 80C62.0914 80 80 62.0914 80 40C80 17.9086 62.0914 0 40 0C17.9086 0 0 17.9086 0 40C0 62.0914 17.9086 80 40 80Z" fill="#F2F2F2"/>
<path d="M40 80C62.0914 80 80 62.0914 80 40C80 17.9086 62.0914 0 40 0C17.9086 0 0 17.9086 0 40C0 62.0914 17.9086 80 40 80Z" fill="url(#paint0_linear)"/>
<path d="M6.01758 61.0779H19.9397L17.0954 56.4372C15.6284 54.0121 12.9936 52.545 10.1793 52.545C8.59243 52.545 7.06548 51.9162 5.9577 50.7785L5.808 50.6288C4.79003 49.6109 3.41279 49.042 2.0056 49.042H1.01758C2.03554 53.3534 3.74213 57.4252 6.01758 61.0779Z" fill="#FFB9B8"/>
<path d="M73.9524 61.0779H60.0303L62.8746 56.4372C64.3417 54.0121 66.9764 52.545 69.7908 52.545C71.3776 52.545 72.9045 51.9162 74.0123 50.7785L74.162 50.6288C75.18 49.6109 76.5572 49.042 77.9644 49.042H78.9225C77.9345 53.3534 76.2279 57.4252 73.9524 61.0779Z" fill="#FFB9B8"/>
<path d="M20.9883 33.8921V56.8562C20.9883 58.0837 22.0062 59.1017 23.2338 59.1017H57.1859C58.4134 59.1017 59.4314 58.0837 59.4314 56.8562V33.8921H20.9883Z" fill="#F4CF4B"/>
<path d="M39.2517 20.6586L21.7068 32.485C20.7188 33.1436 20.7188 34.6107 21.7068 35.2694L39.2517 47.1257C39.8206 47.5149 40.5691 47.5149 41.138 47.1257L58.6829 35.2694C59.6709 34.6107 59.6709 33.1436 58.6829 32.485L41.138 20.6586C40.5691 20.2694 39.8206 20.2694 39.2517 20.6586Z" fill="#EABD1E"/>
<path d="M53.084 23.9822H27.3056C26.3774 23.9822 25.6289 24.7307 25.6289 25.6588V37.9043L39.2517 47.1259C39.8205 47.5151 40.569 47.5151 41.1379 47.1259L54.7606 37.9043V25.6588C54.7606 24.7307 54.0121 23.9822 53.084 23.9822Z" fill="white"/>
<path d="M44.1617 45.1199L41.4072 42.6947C40.7186 42.0959 39.7007 42.0959 39.042 42.6947L36.2875 45.1199L21.4971 58.2935C21.9162 58.7725 22.515 59.1019 23.2037 59.1019H57.1558C57.8444 59.1019 58.4731 58.7725 58.8923 58.2935L44.1617 45.1199Z" fill="#EABD1E"/>
<path d="M37.7842 38.8623C37.0657 38.473 36.4968 37.9341 36.1076 37.2155C35.7184 36.5269 35.5088 35.7185 35.5088 34.7904C35.5088 33.7724 35.7184 32.9042 36.1375 32.1557C36.5567 31.4072 37.1256 30.8682 37.8441 30.479C38.5627 30.0898 39.401 29.9102 40.3291 29.9102C41.2872 29.9102 42.0956 30.0898 42.7842 30.4491C43.4729 30.8084 43.9818 31.2874 44.3411 31.9161C44.7004 32.5449 44.88 33.2335 44.88 33.982C44.88 34.6108 44.7902 35.1497 44.5806 35.6287C44.401 36.0778 44.1315 36.4371 43.7723 36.6766C43.4429 36.9161 43.0537 37.0359 42.6046 37.0359C42.2154 37.0359 41.916 36.9461 41.6765 36.7964C41.4369 36.6167 41.2872 36.4072 41.2274 36.1377H41.1974C40.9878 36.4072 40.7782 36.6467 40.5387 36.7964C40.2992 36.9461 39.9998 37.0359 39.6106 37.0359C39.0717 37.0359 38.6525 36.8563 38.3531 36.497C38.0537 36.1377 37.904 35.6587 37.904 35.0599C37.904 34.5509 37.9938 34.0718 38.2034 33.6527C38.413 33.2335 38.6824 32.8742 39.0118 32.6347C39.3711 32.3952 39.7603 32.2754 40.2094 32.2754C40.5088 32.2754 40.7782 32.3353 40.9878 32.4551C41.2274 32.5748 41.3771 32.7545 41.4669 32.994H41.4968L41.5268 32.8443C41.5567 32.6946 41.6166 32.5748 41.7064 32.5149C41.8262 32.4251 41.9459 32.3952 42.1256 32.3952C42.3052 32.3952 42.425 32.4551 42.5148 32.5449C42.6046 32.6347 42.6645 32.7844 42.6645 32.9341C42.6645 32.994 42.6645 33.0539 42.6645 33.0838L42.3351 34.9401C42.3052 35.1497 42.2753 35.3293 42.2753 35.4491C42.2753 35.6587 42.3052 35.8084 42.395 35.9281C42.4848 36.0479 42.6345 36.0778 42.8142 36.0778C42.9639 36.0778 43.1136 36.0179 43.2633 35.8682C43.413 35.7185 43.5327 35.509 43.6226 35.1796C43.7124 34.8802 43.7723 34.4611 43.7723 33.982C43.7723 33.3832 43.6525 32.8443 43.383 32.3652C43.1136 31.9161 42.7244 31.5569 42.2154 31.2874C41.7064 31.0179 41.0777 30.8982 40.3291 30.8982C39.6405 30.8982 39.0118 31.0479 38.4729 31.3473C37.9339 31.6467 37.4848 32.0958 37.1854 32.6946C36.886 33.2934 36.7064 33.982 36.7064 34.7904C36.7064 35.509 36.8561 36.1676 37.1256 36.7066C37.425 37.2455 37.8142 37.6646 38.383 37.964C38.922 38.2634 39.5806 38.4132 40.3291 38.4132C40.8082 38.4132 41.2274 38.3533 41.5567 38.2634C41.916 38.1736 42.2453 38.0239 42.5747 37.7844C42.6944 37.7245 42.8142 37.6646 42.904 37.6646C43.0537 37.6646 43.1735 37.7245 43.2633 37.8143C43.3531 37.9042 43.413 38.0239 43.413 38.1736C43.413 38.3533 43.3232 38.503 43.1435 38.6227C42.8441 38.8323 42.4549 39.012 41.9759 39.1617C41.4669 39.3114 40.928 39.3712 40.3291 39.3712C39.3411 39.4311 38.5028 39.2515 37.7842 38.8623ZM40.6285 35.8084C40.8381 35.6287 40.9878 35.3892 41.1076 35.1197C41.2274 34.8203 41.2573 34.5209 41.2573 34.2215C41.2573 33.8922 41.1675 33.6227 41.0477 33.473C40.898 33.2934 40.6884 33.2335 40.419 33.2335C40.1495 33.2335 39.91 33.3233 39.7303 33.503C39.5208 33.6826 39.3711 33.9221 39.2812 34.1916C39.1914 34.4611 39.1315 34.7605 39.1315 35.0599C39.1315 35.3593 39.1914 35.6287 39.3411 35.8084C39.4908 35.988 39.6705 36.0778 39.91 36.0778C40.1794 36.0778 40.419 35.988 40.6285 35.8084Z" fill="#3B32C3"/>
<path d="M5 59C11.7964 71.4251 24.9701 79.8683 40.1198 79.8683C55.2695 79.8683 68.473 71.4251 75.2395 59H5Z" fill="#5151CC"/>
<path opacity="0.2" d="M32.8747 79.3413L58.6531 59.1018H21.8567L10.4795 66.9761C16.2879 73.2934 24.0723 77.7545 32.8747 79.3413Z" fill="#1D1DA4"/>
<defs>
<linearGradient id="paint0_linear" x1="22" y1="-9.40263e-07" x2="53" y2="53.5" gradientUnits="userSpaceOnUse">
<stop stop-color="#3636B0"/>
<stop offset="1" stop-color="#3B31C4"/>
</linearGradient>
</defs>
</svg>
